<svg width="32" height="28" viewBox="0 0 32 28" fill="none" xmlns="http://www.w3.org/2000/svg">
<path d="M2.90909 28C2.10909 28 1.42448 27.7261 0.855273 27.1782C0.285091 26.6294 0 25.97 0 25.2V8.4C0 7.63 0.285091 6.97107 0.855273 6.4232C1.42448 5.8744 2.10909 5.6 2.90909 5.6H7.49091L10.1818 2.8H18.9091V8.4H23.2727V12.6H29.0909V25.2C29.0909 25.97 28.8063 26.6294 28.2371 27.1782C27.6669 27.7261 26.9818 28 26.1818 28H2.90909ZM14.5455 23.1C16.3636 23.1 17.9093 22.4877 19.1825 21.2632C20.4548 20.0377 21.0909 18.55 21.0909 16.8C21.0909 15.05 20.4548 13.5623 19.1825 12.3368C17.9093 11.1123 16.3636 10.5 14.5455 10.5C12.7273 10.5 11.1816 11.1123 9.90836 12.3368C8.63612 13.5623 8 15.05 8 16.8C8 18.55 8.63612 20.0377 9.90836 21.2632C11.1816 22.4877 12.7273 23.1 14.5455 23.1ZM14.5455 20.3C13.5273 20.3 12.6667 19.9617 11.9636 19.285C11.2606 18.6083 10.9091 17.78 10.9091 16.8C10.9091 15.82 11.2606 14.9917 11.9636 14.315C12.6667 13.6383 13.5273 13.3 14.5455 13.3C15.5636 13.3 16.4242 13.6383 17.1273 14.315C17.8303 14.9917 18.1818 15.82 18.1818 16.8C18.1818 17.78 17.8303 18.6083 17.1273 19.285C16.4242 19.9617 15.5636 20.3 14.5455 20.3ZM26.1818 8.4V5.6H23.2727V2.8H26.1818V0H29.0909V2.8H32V5.6H29.0909V8.4H26.1818Z" fill="white"/>
</svg>
