<svg width="37" height="28" viewBox="0 0 37 28" fill="none" xmlns="http://www.w3.org/2000/svg">
<path d="M35.7565 6.83919L35.7589 6.84115C36.0524 7.08133 36.2719 7.39784 36.3932 7.75462C36.5145 8.11138 36.5329 8.49458 36.4463 8.86105L32.398 25.9302L32.3979 25.9302L32.3966 25.936C32.3374 26.1997 32.2238 26.4485 32.0627 26.6668C31.9016 26.8851 31.6965 27.0681 31.4602 27.2042L31.4594 27.2046C30.9747 27.4849 30.3975 27.5633 29.8543 27.4224C22.4183 25.382 14.5641 25.3823 7.12815 27.4233L7.12814 27.4232L7.12233 27.4249C6.95046 27.4743 6.77243 27.4996 6.59342 27.5C6.21911 27.4994 5.85215 27.3983 5.53143 27.2077L5.52902 27.2062C5.29302 27.0678 5.08806 26.8833 4.9264 26.6643C4.76474 26.4452 4.6497 26.1961 4.58808 25.932L4.58776 25.9306L0.555243 8.86107L0.554936 8.85979C0.467361 8.49341 0.484756 8.11004 0.605216 7.75287C0.725684 7.39568 0.944567 7.07857 1.23761 6.83766C1.5307 6.59673 1.8862 6.4417 2.26404 6.39055C2.64188 6.3394 3.02651 6.39423 3.37434 6.54868L3.37532 6.54911L11.4086 10.0954L11.825 10.2792L12.047 9.88189L16.7121 1.53274C16.7125 1.53207 16.7129 1.53139 16.7133 1.53072C16.8923 1.21862 17.1515 0.958607 17.465 0.777414C17.7793 0.595815 18.1367 0.5 18.5008 0.5C18.8649 0.5 19.2222 0.595815 19.5365 0.777414C19.85 0.958606 20.1092 1.21862 20.2882 1.53072C20.2886 1.53139 20.289 1.53207 20.2894 1.53274L24.9545 9.88189L25.1765 10.2792L25.5929 10.0954L33.6262 6.54911L33.6278 6.54841C33.9743 6.39398 34.3579 6.3393 34.7346 6.3908C35.1112 6.4423 35.4653 6.59782 35.7565 6.83919Z" fill="#FFC56D" stroke="white"/>
</svg>
