<svg width="24" height="30" viewBox="0 0 24 30" fill="none" xmlns="http://www.w3.org/2000/svg">
<path d="M23 15L16.7143 8.77778M23 15L16.7143 21.2222M23 15H7.28571M15.1429 29C13.2856 29 11.4465 28.6379 9.73062 27.9343C8.01473 27.2307 6.45563 26.1995 5.14235 24.8995C3.82906 23.5995 2.78731 22.0561 2.07656 20.3576C1.36582 18.659 1 16.8385 1 15C1 13.1615 1.36582 11.341 2.07656 9.64243C2.78731 7.94387 3.82906 6.40053 5.14235 5.1005C6.45563 3.80048 8.01473 2.76925 9.73062 2.06569C11.4465 1.36212 13.2856 1 15.1429 1" stroke="black" stroke-opacity="0.4" stroke-width="2" stroke-linecap="round" stroke-linejoin="round"/>
</svg>
