<svg width="16" height="19" viewBox="0 0 16 19" fill="none" xmlns="http://www.w3.org/2000/svg">
<path d="M8.5 9.025C7.88432 9.025 7.29385 8.77478 6.8585 8.32938C6.42315 7.88398 6.17857 7.27989 6.17857 6.65C6.17857 6.02011 6.42315 5.41602 6.8585 4.97062C7.29385 4.52522 7.88432 4.275 8.5 4.275C9.11568 4.275 9.70615 4.52522 10.1415 4.97062C10.5768 5.41602 10.8214 6.02011 10.8214 6.65C10.8214 6.96189 10.7614 7.27073 10.6447 7.55887C10.5281 7.84702 10.3571 8.10884 10.1415 8.32938C9.92593 8.54992 9.67002 8.72486 9.38837 8.84421C9.10672 8.96357 8.80485 9.025 8.5 9.025ZM8.5 0C6.77609 0 5.12279 0.700623 3.90381 1.94774C2.68482 3.19486 2 4.88631 2 6.65C2 11.6375 8.5 19 8.5 19C8.5 19 15 11.6375 15 6.65C15 4.88631 14.3152 3.19486 13.0962 1.94774C11.8772 0.700623 10.2239 0 8.5 0Z" fill="black" fill-opacity="0.4"/>
</svg>
